<svg xmlns="http://www.w3.org/2000/svg" xmlns:xlink="http://www.w3.org/1999/xlink" width="288" height="112" viewBox="0 0 288 112">
  <defs>
    <clipPath id="clip-path">
      <rect id="Rectangle_3977" data-name="Rectangle 3977" width="267.424" height="99" fill="none"/>
    </clipPath>
    <clipPath id="clip-logo">
      <rect width="288" height="112"/>
    </clipPath>
  </defs>
  <g id="logo" clip-path="url(#clip-logo)">
    <g id="Group_6076" data-name="Group 6076" transform="translate(10 7)">
      <g id="Group_6068" data-name="Group 6068" clip-path="url(#clip-path)">
        <path id="Path_53250" data-name="Path 53250" d="M47.408,33.991a2.676,2.676,0,0,1-2.676-2.676V2.676a2.676,2.676,0,1,1,5.352,0V31.314a2.676,2.676,0,0,1-2.675,2.676" transform="translate(2.069)" fill="#fa8a25"/>
        <path id="Path_53251" data-name="Path 53251" d="M35.761,21.985a2.677,2.677,0,0,1-2.473-1.653L27.809,7.108a2.676,2.676,0,1,1,4.945-2.049l5.478,13.226a2.677,2.677,0,0,1-2.471,3.7" transform="translate(1.277 0.158)" fill="#f16026"/>
        <path id="Path_53252" data-name="Path 53252" d="M35.981,38.68a2.671,2.671,0,0,1-1.893-.784L13.871,17.677a2.676,2.676,0,0,1,3.784-3.785L37.874,34.111a2.676,2.676,0,0,1-1.893,4.569" transform="translate(0.605 0.606)" fill="#fa8a25"/>
        <path id="Path_53253" data-name="Path 53253" d="M19.261,38.448a2.68,2.68,0,0,1-1.023-.2l-13.2-5.469a2.676,2.676,0,1,1,2.048-4.945l13.2,5.468a2.677,2.677,0,0,1-1.025,5.15" transform="translate(0.157 1.278)" fill="#f16026"/>
        <path id="Path_53254" data-name="Path 53254" d="M76.138,38.448a2.677,2.677,0,0,1-1.025-5.15l13.2-5.468a2.676,2.676,0,1,1,2.048,4.945l-13.2,5.469a2.68,2.68,0,0,1-1.023.2" transform="translate(3.398 1.278)" fill="#f16026"/>
        <path id="Path_53255" data-name="Path 53255" d="M59.72,38.688a2.676,2.676,0,0,1-1.893-4.569L78.055,13.892a2.676,2.676,0,0,1,3.785,3.784L61.613,37.9a2.672,2.672,0,0,1-1.893.784" transform="translate(2.639 0.606)" fill="#fa8a25"/>
        <path id="Path_53256" data-name="Path 53256" d="M59.3,21.985a2.677,2.677,0,0,1-2.471-3.7L62.3,5.059a2.676,2.676,0,1,1,4.945,2.049L61.771,20.332A2.676,2.676,0,0,1,59.3,21.985" transform="translate(2.619 0.158)" fill="#f16026"/>
        <path id="Path_53257" data-name="Path 53257" d="M49.444,96.367A49.672,49.672,0,0,1,1.8,60.335,2.677,2.677,0,0,1,6.95,58.88a44.164,44.164,0,0,0,84.987,0,2.677,2.677,0,0,1,5.152,1.454A49.672,49.672,0,0,1,49.444,96.367" transform="translate(0.079 2.633)" fill="#3873a6"/>
        <path id="Path_53258" data-name="Path 53258" d="M48.779,82.042a35.069,35.069,0,0,1-32.5-21.719,2.676,2.676,0,1,1,4.945-2.048,29.823,29.823,0,0,0,55.022.207,2.676,2.676,0,1,1,4.929,2.085,35.109,35.109,0,0,1-32.4,21.474" transform="translate(0.744 2.619)" fill="#3873a6"/>
        <path id="Path_53259" data-name="Path 53259" d="M47.937,67.736a20.709,20.709,0,0,1-14.863-6.223,2.676,2.676,0,1,1,3.813-3.756,15.51,15.51,0,0,0,22.256-.16,2.677,2.677,0,1,1,3.867,3.7,20.682,20.682,0,0,1-15.072,6.438" transform="translate(1.494 2.626)" fill="#3873a6"/>
        <path id="Path_53260" data-name="Path 53260" d="M96.37,50.508H67.732a2.671,2.671,0,0,1-1.2-.282L49.546,41.731,32.557,50.225a2.671,2.671,0,0,1-1.2.282H2.676a2.676,2.676,0,0,1,0-5.353H30.729l17.62-8.811a2.679,2.679,0,0,1,2.395,0l17.62,8.811H96.37a2.676,2.676,0,0,1,0,5.353" transform="translate(0 1.668)" fill="#44ad6f"/>
        <path id="Path_53261" data-name="Path 53261" d="M115.238,36.811h-5.9l-1.013,2.877h-2.412l5.046-14.1h2.675l5.046,14.1h-2.433Zm-.649-1.885L112.3,28.38l-2.31,6.546Z" transform="translate(4.899 1.183)" fill="#061c39"/>
        <path id="Path_53262" data-name="Path 53262" d="M121.426,39.341a4.2,4.2,0,0,1-1.784-1.408,3.585,3.585,0,0,1-.648-2.128h2.472a2.23,2.23,0,0,0,.719,1.5,2.551,2.551,0,0,0,1.794.588,2.762,2.762,0,0,0,1.864-.578,1.879,1.879,0,0,0,.669-1.49,1.627,1.627,0,0,0-.415-1.155,2.8,2.8,0,0,0-1.034-.689,15.924,15.924,0,0,0-1.713-.526,15.929,15.929,0,0,1-2.239-.74,3.7,3.7,0,0,1-1.47-1.166,3.37,3.37,0,0,1-.608-2.107,3.749,3.749,0,0,1,.608-2.128,3.888,3.888,0,0,1,1.7-1.4,6.181,6.181,0,0,1,2.533-.487,5.281,5.281,0,0,1,3.354,1.023,3.781,3.781,0,0,1,1.449,2.807h-2.553a1.858,1.858,0,0,0-.73-1.317,2.7,2.7,0,0,0-1.764-.547,2.5,2.5,0,0,0-1.621.507,1.761,1.761,0,0,0-.629,1.458,1.478,1.478,0,0,0,.4,1.064,2.8,2.8,0,0,0,1,.659,15.4,15.4,0,0,0,1.661.526,17.466,17.466,0,0,1,2.28.77,3.8,3.8,0,0,1,1.5,1.186,3.412,3.412,0,0,1,.618,2.138,3.844,3.844,0,0,1-.579,2.027,4.168,4.168,0,0,1-1.681,1.53,5.537,5.537,0,0,1-2.6.579,6.3,6.3,0,0,1-2.554-.5" transform="translate(5.504 1.176)" fill="#061c39"/>
        <path id="Path_53263" data-name="Path 53263" d="M133.409,38.915a6.821,6.821,0,0,1-2.616-2.574,7.645,7.645,0,0,1,0-7.427,6.853,6.853,0,0,1,2.616-2.563,7.589,7.589,0,0,1,7.254,0,6.773,6.773,0,0,1,2.6,2.563,7.7,7.7,0,0,1,0,7.427,6.742,6.742,0,0,1-2.6,2.574,7.589,7.589,0,0,1-7.254,0m6.109-1.722a4.422,4.422,0,0,0,1.713-1.825,6.383,6.383,0,0,0,0-5.481,4.368,4.368,0,0,0-1.713-1.8,5.253,5.253,0,0,0-4.984,0,4.368,4.368,0,0,0-1.713,1.8,6.383,6.383,0,0,0,0,5.481,4.422,4.422,0,0,0,1.713,1.825,5.185,5.185,0,0,0,4.984,0" transform="translate(6.006 1.176)" fill="#061c39"/>
        <path id="Path_53264" data-name="Path 53264" d="M153.731,25.6v1.884h-3.749v12.2h-2.311v-12.2H143.9V25.6Z" transform="translate(6.656 1.184)" fill="#061c39"/>
        <rect id="Rectangle_3975" data-name="Rectangle 3975" width="2.31" height="14.085" transform="translate(162.06 26.787)" fill="#061c39"/>
        <path id="Path_53265" data-name="Path 53265" d="M171.448,39.688h-2.31L162.187,29.17V39.688h-2.31V25.583h2.31l6.951,10.5v-10.5h2.31Z" transform="translate(7.395 1.183)" fill="#061c39"/>
        <path id="Path_53266" data-name="Path 53266" d="M179.1,28.914a6.853,6.853,0,0,1,2.615-2.564,7.686,7.686,0,0,1,7.62.183,6.3,6.3,0,0,1,2.543,3.13h-2.777A3.726,3.726,0,0,0,187.586,28a4.514,4.514,0,0,0-2.249-.547,4.917,4.917,0,0,0-2.492.629,4.368,4.368,0,0,0-1.713,1.8,6.362,6.362,0,0,0,0,5.472,4.43,4.43,0,0,0,1.713,1.813,4.85,4.85,0,0,0,2.492.639,4.5,4.5,0,0,0,2.249-.548,3.71,3.71,0,0,0,1.52-1.661h2.777a6.234,6.234,0,0,1-2.543,3.121,7.394,7.394,0,0,1-4,1.094,7.275,7.275,0,0,1-3.627-.922,6.877,6.877,0,0,1-2.6-2.564,7.625,7.625,0,0,1,0-7.417" transform="translate(8.24 1.176)" fill="#061c39"/>
        <path id="Path_53267" data-name="Path 53267" d="M196.053,38.915a6.818,6.818,0,0,1-2.615-2.574,7.645,7.645,0,0,1,0-7.427,6.85,6.85,0,0,1,2.615-2.563,7.591,7.591,0,0,1,7.255,0,6.78,6.78,0,0,1,2.6,2.563,7.711,7.711,0,0,1,0,7.427,6.749,6.749,0,0,1-2.6,2.574,7.591,7.591,0,0,1-7.255,0m6.11-1.722a4.429,4.429,0,0,0,1.713-1.825,6.383,6.383,0,0,0,0-5.481,4.374,4.374,0,0,0-1.713-1.8,5.255,5.255,0,0,0-4.985,0,4.374,4.374,0,0,0-1.713,1.8,6.383,6.383,0,0,0,0,5.481,4.429,4.429,0,0,0,1.713,1.825,5.187,5.187,0,0,0,4.985,0" transform="translate(8.903 1.176)" fill="#061c39"/>
        <path id="Path_53268" data-name="Path 53268" d="M210.467,25.6v8.978a2.887,2.887,0,0,0,3.182,3.222,3.264,3.264,0,0,0,2.361-.811,3.2,3.2,0,0,0,.841-2.412V25.6h2.309V34.54a5.387,5.387,0,0,1-.749,2.919,4.654,4.654,0,0,1-2.007,1.783,6.461,6.461,0,0,1-2.776.588,6.388,6.388,0,0,1-2.766-.588,4.533,4.533,0,0,1-1.976-1.783,5.5,5.5,0,0,1-.729-2.919V25.6Z" transform="translate(9.629 1.184)" fill="#061c39"/>
        <path id="Path_53269" data-name="Path 53269" d="M232.972,39.688h-2.31L223.71,29.17V39.688H221.4V25.583h2.31l6.951,10.5v-10.5h2.31Z" transform="translate(10.241 1.183)" fill="#061c39"/>
        <path id="Path_53270" data-name="Path 53270" d="M243.868,25.6v1.884h-3.749v12.2h-2.311v-12.2h-3.77V25.6Z" transform="translate(10.826 1.184)" fill="#061c39"/>
        <path id="Path_53271" data-name="Path 53271" d="M256.117,25.6l-4.661,8.978v5.107h-2.31V34.581L244.463,25.6h2.574l3.263,6.911,3.262-6.911Z" transform="translate(11.308 1.184)" fill="#061c39"/>
        <path id="Path_53272" data-name="Path 53272" d="M111.275,66.49h9.552V71.1H105.461V42.112h5.814Z" transform="translate(4.878 1.948)" fill="#061c39"/>
        <rect id="Rectangle_3976" data-name="Rectangle 3976" width="5.814" height="28.988" transform="translate(128.247 44.06)" fill="#061c39"/>
        <path id="Path_53273" data-name="Path 53273" d="M153.74,58.683a7.157,7.157,0,0,1,1.579,4.569,7.355,7.355,0,0,1-1.143,4.09,7.609,7.609,0,0,1-3.3,2.762,12.1,12.1,0,0,1-5.109,1h-12.5V42.112h11.961a12.421,12.421,0,0,1,5.088.955,7.256,7.256,0,0,1,3.239,2.659,6.962,6.962,0,0,1,1.1,3.862,6.612,6.612,0,0,1-1.35,4.236,7.221,7.221,0,0,1-3.593,2.408,6.521,6.521,0,0,1,4.028,2.45m-14.659-4.61H144.4a4.872,4.872,0,0,0,3.2-.934,3.291,3.291,0,0,0,1.121-2.678,3.353,3.353,0,0,0-1.121-2.7,4.794,4.794,0,0,0-3.2-.955h-5.315Zm9.157,11.3a3.487,3.487,0,0,0,1.183-2.824,3.638,3.638,0,0,0-1.246-2.928,5.025,5.025,0,0,0-3.364-1.059h-5.73v7.808h5.855a4.976,4.976,0,0,0,3.3-1" transform="translate(6.165 1.948)" fill="#061c39"/>
        <path id="Path_53274" data-name="Path 53274" d="M173.343,71.1l-6.4-11.3h-2.741V71.1h-5.814V42.112h10.881A12.691,12.691,0,0,1,175,43.3a8.265,8.265,0,0,1,3.551,3.2A8.731,8.731,0,0,1,179.738,51a8.637,8.637,0,0,1-1.66,5.171,8.538,8.538,0,0,1-4.943,3.176L180.07,71.1Zm-9.137-15.656h4.859a4.853,4.853,0,0,0,3.53-1.141,4.253,4.253,0,0,0,1.163-3.177,4.053,4.053,0,0,0-1.163-3.094,4.972,4.972,0,0,0-3.53-1.1h-4.859Z" transform="translate(7.327 1.948)" fill="#061c39"/>
        <path id="Path_53275" data-name="Path 53275" d="M200.871,65.578H189.325L187.416,71.1h-6.1l10.424-29.029H198.5L208.928,71.1h-6.147Zm-1.578-4.652L195.1,48.8,190.9,60.927Z" transform="translate(8.387 1.946)" fill="#061c39"/>
        <path id="Path_53276" data-name="Path 53276" d="M225.2,71.1l-6.4-11.3h-2.741V71.1h-5.814V42.112h10.881a12.691,12.691,0,0,1,5.73,1.184,8.265,8.265,0,0,1,3.551,3.2A8.731,8.731,0,0,1,231.6,51a8.637,8.637,0,0,1-1.66,5.171,8.537,8.537,0,0,1-4.943,3.176L231.929,71.1Zm-9.137-15.656h4.859a4.853,4.853,0,0,0,3.53-1.141,4.253,4.253,0,0,0,1.163-3.177,4.053,4.053,0,0,0-1.163-3.094,4.972,4.972,0,0,0-3.53-1.1h-4.859Z" transform="translate(9.726 1.948)" fill="#061c39"/>
        <path id="Path_53277" data-name="Path 53277" d="M256.615,42.112l-9.8,18.9V71.1H241V61.008l-9.842-18.9h6.561l6.229,13.248,6.189-13.248Z" transform="translate(10.693 1.948)" fill="#061c39"/>
      </g>
    </g>
  </g>
</svg>
