<?xml version="1.0" encoding="UTF-8"?>
<svg id="Layer_1" data-name="Layer 1" xmlns="http://www.w3.org/2000/svg" viewBox="0 0 321.57 110.28">
  <defs>
    <style>
      .cls-1 {
        fill: #231f20;
      }

      .cls-1, .cls-2, .cls-3 {
        stroke-width: 0px;
      }

      .cls-2 {
        fill: #a90533;
      }

      .cls-3 {
        fill: #fff;
      }
    </style>
  </defs>
  <rect class="cls-2" width="58" height="106.47"/>
  <polygon class="cls-3" points="35.6 16.4 35.6 20 38.1 20 38.1 40.1 32.8 40.1 32.8 13.6 35.6 13.6 35.6 10 22.4 10 22.4 13.6 25.2 13.6 25.2 40.1 19.9 40.1 19.9 20 22.4 20 22.4 16.4 10 16.4 10 20 12.8 20 12.8 43.3 17.4 47.9 25.2 47.9 25.2 53.3 22.4 53.3 22.4 58 35.6 58 35.6 53.3 32.8 53.3 32.8 47.9 40.6 47.9 45.2 43.3 45.2 20 48 20 48 16.4 35.6 16.4"/>
  <polygon class="cls-1" points="73 10.06 77.96 10.06 77.96 30.14 87.04 30.14 87.04 34.22 73 34.22 73 10.06"/>
  <path class="cls-1" d="M97.75,34.62c-1.47,0-2.73-.21-3.78-.59-1.05-.38-1.91-.96-2.58-1.71-.69-.73-1.18-1.66-1.5-2.74-.32-1.08-.48-2.31-.48-3.71v-15.81h4.97v15.51c0,.84.05,1.58.18,2.18.13.61.32,1.12.61,1.51.27.4.62.69,1.05.88s.96.29,1.59.29c1.23,0,2.1-.38,2.63-1.18.53-.78.8-1.99.8-3.65v-15.54h4.73v15.78c0,1.4-.16,2.65-.46,3.73-.32,1.08-.8,2.01-1.47,2.76-.67.75-1.51,1.32-2.55,1.71-1.05.38-2.3.59-3.75.59Z"/>
  <path class="cls-1" d="M116.45,30.08c1.04,0,1.91-.14,2.63-.43.72-.29,1.31-.73,1.75-1.37.45-.64.77-1.45.96-2.47.19-1.02.3-2.26.3-3.73s-.11-2.61-.3-3.6c-.19-.99-.51-1.79-.96-2.42-.45-.62-1.04-1.08-1.75-1.37-.73-.29-1.61-.43-2.66-.43h-1.8v15.83h1.83ZM109.66,10.06h6.33c1.63,0,3.11.19,4.46.57,1.35.38,2.52,1.02,3.51,1.94.99.92,1.75,2.15,2.3,3.68.54,1.55.81,3.49.81,5.82,0,1.56-.13,2.95-.38,4.16s-.61,2.28-1.07,3.17c-.48.89-1.04,1.66-1.69,2.26-.67.62-1.4,1.12-2.22,1.5-.83.38-1.72.65-2.68.81-.97.16-1.99.24-3.04.24h-6.33V10.06Z"/>
  <path class="cls-1" d="M136.88,30.08c1.04,0,1.91-.14,2.63-.43.72-.29,1.31-.73,1.75-1.37s.77-1.45.96-2.47.3-2.26.3-3.73-.11-2.61-.3-3.6c-.19-.99-.51-1.79-.96-2.42-.45-.62-1.04-1.08-1.75-1.37-.73-.29-1.61-.43-2.66-.43h-1.8v15.83h1.83ZM130.09,10.06h6.33c1.63,0,3.11.19,4.46.57,1.35.38,2.52,1.02,3.51,1.94.99.92,1.75,2.15,2.3,3.68.54,1.55.81,3.49.81,5.82,0,1.56-.13,2.95-.38,4.16s-.61,2.28-1.07,3.17c-.48.89-1.04,1.66-1.69,2.26-.67.62-1.4,1.12-2.22,1.5-.83.38-1.72.65-2.68.81-.97.16-1.99.24-3.04.24h-6.33V10.06Z"/>
  <polygon class="cls-1" points="155.42 24.76 148.63 10.06 153.69 10.06 158 20.25 158.06 20.25 162.36 10.06 167.19 10.06 160.37 24.73 160.37 34.22 155.42 34.22 155.42 24.76"/>
  <path class="cls-1" d="M76.78,58.54c-.59,0-1.12-.08-1.6-.23-.48-.16-.91-.38-1.29-.67-.39-.29-.72-.64-1.02-1.05-.3-.41-.55-.87-.76-1.38l1.36-.62c.16.37.34.71.56,1.03s.45.58.73.81c.27.22.58.4.91.52.33.13.7.19,1.1.19s.78-.05,1.11-.16c.32-.11.6-.26.83-.45s.4-.44.52-.71c.12-.28.19-.58.19-.94,0-.41-.08-.76-.24-1.07-.17-.3-.38-.57-.64-.81-.27-.23-.58-.45-.92-.63-.35-.19-.71-.36-1.09-.55-.3-.14-.6-.29-.91-.44-.31-.15-.6-.32-.88-.49-.28-.18-.55-.37-.79-.59-.24-.21-.45-.45-.64-.73-.19-.27-.32-.58-.43-.92-.11-.33-.16-.72-.16-1.16,0-.51.09-.98.29-1.41.19-.43.46-.8.81-1.11.34-.31.75-.55,1.22-.71s.96-.26,1.51-.26,1.05.08,1.49.24c.45.16.83.37,1.18.64.34.27.64.58.89.94.25.36.46.74.63,1.14l-1.36.67c-.13-.3-.29-.58-.45-.84-.17-.27-.37-.51-.59-.71-.23-.2-.49-.36-.79-.48-.3-.12-.64-.19-1.01-.19-.33,0-.64.06-.92.15-.28.1-.51.24-.71.42-.19.19-.34.4-.45.65-.11.25-.16.52-.16.82,0,.41.07.77.23,1.07.16.31.37.58.63.81.26.24.57.45.91.64.33.19.69.37,1.06.55.3.15.6.3.91.45.31.15.6.32.89.49.28.19.55.38.8.59.24.22.46.46.65.74.19.28.32.58.44.93.1.34.16.72.16,1.15,0,.52-.1,1-.3,1.45-.19.45-.47.84-.83,1.18-.37.33-.81.6-1.33.8-.52.19-1.09.29-1.74.29Z"/>
  <path class="cls-1" d="M87.74,58.56c-.78,0-1.48-.16-2.09-.46s-1.14-.77-1.57-1.38c-.44-.61-.77-1.38-1-2.29-.23-.91-.34-1.98-.34-3.18s.11-2.21.35-3.12c.24-.9.58-1.66,1.02-2.27.44-.61.96-1.08,1.59-1.39.61-.32,1.3-.47,2.06-.47.65,0,1.22.11,1.72.33.48.22.9.53,1.25.92.35.39.64.86.86,1.4.22.55.39,1.14.52,1.79l-1.48.27c-.11-.53-.25-.99-.41-1.4s-.35-.74-.58-1.02c-.23-.27-.5-.47-.82-.61-.32-.14-.69-.21-1.09-.21-.55,0-1.03.14-1.45.4-.43.26-.78.64-1.07,1.13-.29.5-.5,1.1-.65,1.82-.15.71-.22,1.52-.22,2.42,0,.96.07,1.8.22,2.53.15.73.36,1.35.66,1.85.29.5.65.88,1.08,1.14.43.26.91.39,1.47.39.41,0,.78-.06,1.1-.2.32-.13.6-.34.84-.62.24-.28.45-.64.64-1.07.18-.43.32-.94.45-1.53l1.46.25c-.14.68-.33,1.3-.58,1.86-.24.57-.55,1.05-.92,1.46-.37.41-.8.73-1.3.96-.5.21-1.08.33-1.73.33Z"/>
  <polygon class="cls-1" points="94.45 44.24 96.04 44.24 96.04 50.15 101.74 50.15 101.74 44.24 103.34 44.24 103.34 58.31 101.74 58.31 101.74 51.62 96.04 51.62 96.04 58.31 94.45 58.31 94.45 44.24"/>
  <path class="cls-1" d="M110.75,57.13c.53,0,1.01-.13,1.44-.39.43-.26.79-.63,1.09-1.13.3-.5.53-1.11.7-1.84.16-.72.24-1.56.24-2.5s-.08-1.75-.24-2.48c-.17-.72-.4-1.33-.7-1.83-.3-.5-.66-.87-1.09-1.13-.43-.26-.91-.39-1.44-.39s-1.03.13-1.46.39c-.44.26-.81.63-1.1,1.13-.31.5-.54,1.1-.7,1.83-.17.72-.24,1.55-.24,2.48s.07,1.77.24,2.5c.16.72.39,1.34.7,1.84.3.5.67.87,1.1,1.13.43.26.92.39,1.46.39ZM110.75,58.58c-.74,0-1.42-.16-2.04-.47-.62-.32-1.16-.78-1.61-1.4-.45-.61-.81-1.38-1.06-2.29-.26-.91-.38-1.95-.38-3.14s.12-2.23.38-3.14c.25-.91.6-1.67,1.06-2.28.45-.61.99-1.09,1.61-1.4.62-.32,1.3-.47,2.04-.47s1.4.16,2.02.47c.62.32,1.16.79,1.61,1.4.45.61.8,1.37,1.06,2.28.25.91.38,1.96.38,3.14s-.13,2.23-.38,3.14c-.26.91-.61,1.68-1.06,2.29-.45.62-.99,1.09-1.61,1.4-.62.32-1.3.47-2.02.47Z"/>
  <path class="cls-1" d="M122.66,57.13c.53,0,1.01-.13,1.44-.39.43-.26.79-.63,1.09-1.13.3-.5.53-1.11.7-1.84.16-.72.24-1.56.24-2.5s-.08-1.75-.24-2.48c-.17-.72-.4-1.33-.7-1.83-.3-.5-.66-.87-1.09-1.13-.43-.26-.91-.39-1.44-.39s-1.03.13-1.46.39c-.44.26-.81.63-1.1,1.13-.31.5-.54,1.1-.7,1.83-.17.72-.24,1.55-.24,2.48s.07,1.77.24,2.5c.16.72.39,1.34.7,1.84.3.5.67.87,1.1,1.13.43.26.92.39,1.46.39ZM122.66,58.58c-.74,0-1.42-.16-2.04-.47-.62-.32-1.16-.78-1.61-1.4-.45-.61-.81-1.38-1.06-2.29-.26-.91-.38-1.95-.38-3.14s.12-2.23.38-3.14c.25-.91.6-1.67,1.06-2.28.45-.61.99-1.09,1.61-1.4.62-.32,1.3-.47,2.04-.47s1.4.16,2.02.47c.62.32,1.16.79,1.61,1.4.45.61.8,1.37,1.06,2.28.25.91.38,1.96.38,3.14s-.13,2.23-.38,3.14c-.26.91-.61,1.68-1.06,2.29-.45.62-.99,1.09-1.61,1.4-.62.32-1.3.47-2.02.47Z"/>
  <polygon class="cls-1" points="130.05 44.24 131.65 44.24 131.65 56.86 137.22 56.86 137.22 58.31 130.05 58.31 130.05 44.24"/>
  <path class="cls-1" d="M147.55,57.13c.53,0,1.01-.13,1.44-.39.43-.26.79-.63,1.09-1.13s.53-1.11.7-1.84c.16-.72.24-1.56.24-2.5s-.08-1.75-.24-2.48c-.17-.72-.4-1.33-.7-1.83-.3-.5-.66-.87-1.09-1.13-.43-.26-.91-.39-1.44-.39s-1.03.13-1.46.39c-.44.26-.81.63-1.1,1.13-.31.5-.54,1.1-.7,1.83-.17.72-.24,1.55-.24,2.48s.07,1.77.24,2.5c.16.72.39,1.34.7,1.84.3.5.67.87,1.1,1.13.43.26.92.39,1.46.39ZM147.55,58.58c-.74,0-1.42-.16-2.04-.47-.62-.32-1.16-.78-1.61-1.4-.45-.61-.81-1.38-1.06-2.29-.26-.91-.38-1.95-.38-3.14s.12-2.23.38-3.14c.25-.91.6-1.67,1.06-2.28.45-.61.99-1.09,1.61-1.4.62-.32,1.3-.47,2.04-.47s1.4.16,2.02.47c.62.32,1.16.79,1.61,1.4.45.61.8,1.37,1.06,2.28.25.91.38,1.96.38,3.14s-.13,2.23-.38,3.14c-.26.91-.61,1.68-1.06,2.29-.45.62-.99,1.09-1.61,1.4-.62.32-1.3.47-2.02.47Z"/>
  <polygon class="cls-1" points="154.94 44.24 162.03 44.24 162.03 45.71 156.54 45.71 156.54 50.26 160.55 50.26 160.55 51.69 156.54 51.69 156.54 58.31 154.94 58.31 154.94 44.24"/>
  <rect class="cls-1" x="167.92" y="44.24" width="1.6" height="14.06"/>
  <path class="cls-1" d="M172.52,44.24h1.86l4.41,8.61c.12.24.23.46.33.66.1.2.2.4.3.58.09.19.19.39.29.59.09.2.2.42.32.66h.04v-11.1h1.46v14.06h-1.46l-4.71-9.06c-.14-.25-.26-.48-.36-.69-.11-.2-.21-.4-.31-.6-.1-.2-.2-.41-.31-.63-.11-.21-.23-.46-.36-.74h-.04v11.73h-1.46v-14.06Z"/>
  <polygon class="cls-1" points="184.44 44.24 191.52 44.24 191.52 45.71 186.03 45.71 186.03 50.26 190.04 50.26 190.04 51.69 186.03 51.69 186.03 58.31 184.44 58.31 184.44 44.24"/>
  <path class="cls-1" d="M198.04,57.13c.53,0,1.01-.13,1.44-.39.43-.26.79-.63,1.09-1.13s.53-1.11.7-1.84c.16-.72.24-1.56.24-2.5s-.08-1.75-.24-2.48c-.17-.72-.4-1.33-.7-1.83-.3-.5-.66-.87-1.09-1.13-.43-.26-.91-.39-1.44-.39s-1.03.13-1.46.39c-.44.26-.81.63-1.1,1.13-.31.5-.54,1.1-.7,1.83-.17.72-.24,1.55-.24,2.48s.07,1.77.24,2.5c.16.72.39,1.34.7,1.84.3.5.67.87,1.1,1.13.43.26.92.39,1.46.39ZM198.04,58.58c-.74,0-1.42-.16-2.04-.47-.62-.32-1.16-.78-1.61-1.4-.45-.61-.81-1.38-1.06-2.29-.26-.91-.38-1.95-.38-3.14s.12-2.23.38-3.14c.25-.91.6-1.67,1.06-2.28.45-.61.99-1.09,1.61-1.4.62-.32,1.3-.47,2.04-.47s1.4.16,2.02.47c.62.32,1.16.79,1.61,1.4.45.61.8,1.37,1.06,2.28.25.91.38,1.96.38,3.14s-.13,2.23-.38,3.14c-.26.91-.61,1.68-1.06,2.29-.45.62-.99,1.09-1.61,1.4-.62.32-1.3.47-2.02.47Z"/>
  <path class="cls-1" d="M209.32,50.95c.46,0,.87-.05,1.22-.14.35-.09.65-.24.89-.45.24-.21.42-.49.54-.83.12-.33.19-.76.19-1.26,0-.46-.06-.85-.19-1.18-.12-.32-.3-.59-.53-.8-.24-.2-.54-.34-.89-.44-.35-.09-.77-.14-1.23-.14h-2.31v5.24h2.31ZM205.43,44.24h3.99c.68,0,1.28.08,1.81.24.53.17.97.41,1.35.74.36.33.64.74.83,1.24.19.5.29,1.09.29,1.77,0,.57-.07,1.07-.21,1.49-.15.43-.34.8-.58,1.1-.24.32-.53.57-.84.76-.32.2-.67.34-1.02.44l2.85,6.27h-1.63l-2.76-5.98h-2.49v5.98h-1.58v-14.06Z"/>
  <path class="cls-1" d="M216.26,44.24h1.99l3.55,11.84h.04l3.48-11.84h1.99v14.06h-1.54v-11.51h-.04c-.05.22-.1.48-.18.77-.07.3-.16.59-.24.91-.09.32-.19.64-.28.96-.09.32-.19.63-.28.93l-2.41,7.94h-1.25l-2.41-7.98c-.09-.28-.18-.58-.27-.89s-.19-.63-.27-.95c-.09-.32-.17-.62-.24-.92s-.14-.56-.19-.8h-.04v11.53h-1.42v-14.06Z"/>
  <path class="cls-1" d="M235.28,50.73c-.12-.41-.23-.81-.33-1.19-.11-.38-.21-.75-.31-1.1-.09-.35-.19-.7-.28-1.03-.09-.33-.18-.68-.26-1.01h-.04c-.09.34-.18.69-.26,1.02-.09.33-.19.68-.28,1.03-.09.35-.19.71-.31,1.08-.11.37-.22.76-.33,1.17l-.6,2.18h3.61l-.61-2.14ZM230.76,58.31h-1.5l4.13-14.12h1.48l4.13,14.12h-1.6l-1.12-4.04h-4.39l-1.12,4.04Z"/>
  <polygon class="cls-1" points="242.21 45.71 238.59 45.71 238.59 44.24 247.44 44.24 247.44 45.71 243.81 45.71 243.81 58.31 242.21 58.31 242.21 45.71"/>
  <rect class="cls-1" x="249.51" y="44.24" width="1.6" height="14.06"/>
  <path class="cls-1" d="M258.54,58.56c-.78,0-1.48-.16-2.09-.46s-1.14-.77-1.57-1.38c-.44-.61-.77-1.38-1-2.29-.23-.91-.34-1.98-.34-3.18s.11-2.21.35-3.12c.24-.9.58-1.66,1.02-2.27.44-.61.96-1.08,1.59-1.39.61-.32,1.3-.47,2.06-.47.65,0,1.22.11,1.72.33.48.22.9.53,1.25.92.35.39.64.86.86,1.4.22.55.39,1.14.52,1.79l-1.48.27c-.11-.53-.25-.99-.41-1.4-.16-.41-.35-.74-.58-1.02-.23-.27-.5-.47-.82-.61s-.69-.21-1.09-.21c-.55,0-1.03.14-1.45.4-.43.26-.78.64-1.07,1.13-.29.5-.5,1.1-.65,1.82s-.22,1.52-.22,2.42c0,.96.07,1.8.22,2.53s.36,1.35.66,1.85c.29.5.65.88,1.08,1.14.43.26.91.39,1.47.39.41,0,.78-.06,1.1-.2.32-.13.6-.34.84-.62s.45-.64.64-1.07c.18-.43.32-.94.45-1.53l1.46.25c-.14.68-.33,1.3-.58,1.86-.24.57-.55,1.05-.92,1.46-.37.41-.8.73-1.3.96-.5.21-1.08.33-1.73.33Z"/>
  <path class="cls-1" d="M269.1,58.54c-.59,0-1.12-.08-1.6-.23-.48-.16-.91-.38-1.29-.67-.39-.29-.72-.64-1.02-1.05-.3-.41-.55-.87-.76-1.38l1.36-.62c.16.37.34.71.56,1.03.21.32.45.58.73.81.27.22.58.4.91.52.33.13.7.19,1.1.19s.78-.05,1.11-.16c.32-.11.6-.26.83-.45.22-.19.4-.44.52-.71s.19-.58.19-.94c0-.41-.08-.76-.24-1.07-.17-.3-.38-.57-.64-.81-.27-.23-.58-.45-.92-.63-.35-.19-.71-.36-1.09-.55-.3-.14-.6-.29-.91-.44-.31-.15-.6-.32-.88-.49-.28-.18-.55-.37-.79-.59-.24-.21-.45-.45-.64-.73-.19-.27-.32-.58-.43-.92-.11-.33-.16-.72-.16-1.16,0-.51.09-.98.29-1.41.19-.43.46-.8.81-1.11.34-.31.75-.55,1.22-.71.46-.17.96-.26,1.51-.26s1.05.08,1.49.24c.45.16.83.37,1.18.64.34.27.64.58.89.94.25.36.46.74.63,1.14l-1.36.67c-.13-.3-.29-.58-.45-.84-.17-.27-.37-.51-.59-.71-.23-.2-.49-.36-.79-.48-.3-.12-.64-.19-1.01-.19-.33,0-.64.06-.92.15-.28.1-.51.24-.71.42-.19.19-.34.4-.45.65-.11.25-.16.52-.16.82,0,.41.07.77.23,1.07.16.31.37.58.63.81.26.24.57.45.91.64.33.19.69.37,1.06.55.3.15.6.3.91.45.31.15.6.32.89.49.28.19.55.38.8.59.24.22.46.46.65.74.19.28.32.58.44.93.1.34.16.72.16,1.15,0,.52-.1,1-.3,1.45-.19.45-.47.84-.83,1.18-.37.33-.81.6-1.33.8-.52.19-1.09.29-1.74.29Z"/>
  <polygon class="cls-1" points="276.24 58.31 275.54 58.31 275.54 56.33 277.31 56.33 277.31 58.12 276.45 60.25 275.73 60.25 276.24 58.31"/>
  <path class="cls-1" d="M77.43,82.64c-.78,0-1.48-.16-2.09-.46s-1.14-.77-1.57-1.38c-.44-.61-.77-1.38-1-2.29-.23-.91-.34-1.98-.34-3.18s.11-2.21.35-3.12c.24-.9.58-1.66,1.02-2.27.44-.61.96-1.08,1.59-1.39.61-.32,1.3-.47,2.06-.47.65,0,1.22.11,1.72.33.48.22.9.53,1.25.92.35.39.64.86.86,1.4.22.55.39,1.14.52,1.79l-1.48.27c-.11-.53-.25-.99-.41-1.4s-.35-.74-.58-1.02c-.23-.27-.5-.47-.82-.61-.32-.14-.69-.21-1.09-.21-.55,0-1.03.14-1.45.4-.43.26-.78.64-1.07,1.13-.29.5-.5,1.1-.65,1.82-.15.71-.22,1.52-.22,2.42,0,.96.07,1.8.22,2.53.15.73.36,1.35.66,1.85.29.5.65.88,1.08,1.14s.91.39,1.47.39c.41,0,.78-.06,1.1-.2.32-.13.6-.34.84-.62.24-.28.45-.64.64-1.07.18-.43.32-.94.45-1.53l1.46.25c-.14.68-.33,1.3-.58,1.86-.24.57-.55,1.05-.92,1.46-.37.41-.8.73-1.3.96-.5.21-1.08.33-1.73.33Z"/>
  <path class="cls-1" d="M88.65,81.21c.53,0,1.01-.13,1.44-.39.43-.26.79-.63,1.09-1.13.3-.5.53-1.11.7-1.84.16-.72.24-1.56.24-2.5s-.08-1.75-.24-2.48c-.17-.72-.4-1.33-.7-1.83-.3-.5-.66-.87-1.09-1.13-.43-.26-.91-.39-1.44-.39s-1.03.13-1.46.39c-.44.26-.81.63-1.1,1.13-.31.5-.54,1.1-.7,1.83-.17.72-.24,1.55-.24,2.48s.07,1.77.24,2.5c.16.72.39,1.34.7,1.84.3.5.67.87,1.1,1.13.43.26.92.39,1.46.39ZM88.65,82.66c-.74,0-1.42-.16-2.04-.47-.62-.32-1.16-.78-1.61-1.4-.45-.61-.81-1.38-1.06-2.29-.26-.91-.38-1.95-.38-3.14s.12-2.23.38-3.14c.25-.91.6-1.67,1.06-2.28s.99-1.09,1.61-1.4,1.3-.47,2.04-.47,1.4.16,2.02.47,1.16.79,1.61,1.4c.45.61.8,1.37,1.06,2.28.25.91.38,1.96.38,3.14s-.13,2.23-.38,3.14c-.26.91-.61,1.68-1.06,2.29-.45.62-.99,1.09-1.61,1.4-.62.32-1.3.47-2.02.47Z"/>
  <path class="cls-1" d="M96.04,68.33h1.99l3.55,11.84h.04l3.48-11.84h1.99v14.06h-1.54v-11.51h-.04c-.05.22-.1.48-.18.77-.07.3-.16.59-.24.91-.09.32-.19.64-.28.96-.09.32-.19.63-.28.93l-2.41,7.94h-1.25l-2.41-7.98c-.09-.28-.18-.58-.27-.89s-.19-.63-.27-.95c-.09-.32-.17-.62-.24-.92-.07-.3-.14-.56-.19-.8h-.04v11.53h-1.42v-14.06Z"/>
  <path class="cls-1" d="M113.89,75.14c.46,0,.87-.05,1.22-.15.35-.09.65-.25.89-.47.24-.22.42-.5.54-.85.12-.34.19-.76.19-1.26,0-.46-.06-.86-.19-1.2-.12-.33-.3-.6-.54-.81-.24-.2-.54-.36-.89-.45-.35-.09-.77-.15-1.24-.15h-2.29v5.34h2.31ZM110.01,68.33h3.93c.63,0,1.22.08,1.75.23.53.15.98.39,1.37.71.38.32.68.74.89,1.24.2.51.32,1.12.32,1.83,0,.78-.12,1.44-.34,1.97-.23.54-.55.96-.95,1.29-.4.33-.87.57-1.41.71-.54.15-1.12.21-1.73.21h-2.25v5.87h-1.58v-14.06Z"/>
  <path class="cls-1" d="M124.78,82.64c-.78,0-1.45-.12-2-.34-.56-.23-1-.57-1.35-.99-.35-.43-.61-.94-.78-1.53-.17-.59-.25-1.26-.25-2v-9.44h1.6v9.24c0,.59.05,1.11.14,1.57.09.45.26.83.48,1.14.22.32.51.55.87.71.35.17.8.24,1.32.24s.96-.07,1.32-.24c.35-.16.65-.39.87-.71.22-.32.38-.7.48-1.14.09-.45.15-.96.15-1.54v-9.28h1.53v9.41c0,.72-.08,1.38-.25,1.98-.17.6-.43,1.12-.78,1.56-.35.44-.81.77-1.36,1.01-.56.24-1.22.36-1.98.36Z"/>
  <polygon class="cls-1" points="134.63 69.79 131 69.79 131 68.33 139.86 68.33 139.86 69.79 136.22 69.79 136.22 82.39 134.63 82.39 134.63 69.79"/>
  <rect class="cls-1" x="141.93" y="68.33" width="1.6" height="14.06"/>
  <path class="cls-1" d="M146.53,68.33h1.86l4.41,8.61c.12.24.23.46.33.66.1.2.2.4.3.58.09.19.19.39.29.59.09.2.2.42.32.66h.04v-11.1h1.46v14.06h-1.46l-4.71-9.06c-.14-.25-.26-.48-.36-.69-.11-.2-.21-.4-.31-.6-.1-.2-.2-.41-.31-.63-.11-.21-.23-.46-.36-.74h-.04v11.73h-1.46v-14.06Z"/>
  <path class="cls-1" d="M162.75,82.64c-.78,0-1.48-.17-2.08-.48-.61-.32-1.12-.8-1.54-1.43-.42-.62-.73-1.39-.95-2.3-.22-.91-.32-1.94-.32-3.11s.11-2.15.34-3.05c.22-.9.56-1.66.98-2.28s.96-1.09,1.58-1.43c.62-.32,1.33-.49,2.12-.49.62,0,1.17.1,1.65.31s.89.5,1.24.88c.35.39.64.85.87,1.4.23.56.42,1.17.57,1.86l-1.45.29c-.24-1.09-.58-1.92-1.04-2.46-.45-.54-1.09-.81-1.88-.81-.52,0-.98.12-1.4.36s-.77.6-1.07,1.09c-.3.48-.52,1.09-.68,1.8-.17.72-.24,1.56-.24,2.5,0,1.99.3,3.47.91,4.45.6.98,1.46,1.48,2.55,1.48.93,0,1.66-.34,2.18-1.05.52-.71.79-1.74.83-3.14h-2.68v-1.36h4.1v6.73h-1.27v-1.92h-.02c-.11.27-.27.53-.46.79-.19.26-.43.49-.7.7-.28.2-.59.37-.95.49-.36.13-.76.19-1.2.19Z"/>
  <polygon class="cls-1" points="170.65 82.39 169.94 82.39 169.94 80.42 171.72 80.42 171.72 82.21 170.86 84.33 170.14 84.33 170.65 82.39"/>
  <path class="cls-1" d="M183.4,74.81c-.12-.41-.23-.81-.33-1.19-.11-.38-.21-.75-.31-1.1-.09-.35-.19-.7-.28-1.03-.09-.33-.18-.68-.26-1.01h-.04c-.09.34-.18.69-.26,1.02-.09.33-.19.68-.28,1.03-.09.35-.19.71-.31,1.08-.11.37-.22.76-.33,1.17l-.6,2.18h3.61l-.61-2.14ZM178.88,82.39h-1.5l4.13-14.12h1.48l4.13,14.12h-1.6l-1.12-4.04h-4.39l-1.12,4.04Z"/>
  <path class="cls-1" d="M189.05,68.33h1.86l4.41,8.61c.12.24.23.46.33.66.1.2.2.4.3.58.09.19.19.39.29.59.09.2.2.42.32.66h.04v-11.1h1.46v14.06h-1.46l-4.71-9.06c-.14-.25-.26-.48-.36-.69-.11-.2-.21-.4-.31-.6-.1-.2-.2-.41-.31-.63-.11-.21-.23-.46-.36-.74h-.04v11.73h-1.46v-14.06Z"/>
  <path class="cls-1" d="M204.26,80.96c.71,0,1.32-.1,1.84-.32.52-.21.96-.55,1.3-1,.34-.45.6-1.04.77-1.74.17-.71.26-1.56.26-2.55s-.09-1.79-.26-2.5c-.17-.7-.43-1.27-.77-1.73-.34-.45-.78-.78-1.3-1-.53-.21-1.15-.32-1.86-.32h-1.69v11.17h1.71ZM200.96,68.33h3.09c.96,0,1.83.14,2.57.41s1.37.69,1.87,1.25c.5.57.88,1.29,1.14,2.18.26.89.39,1.95.39,3.17s-.14,2.3-.4,3.19c-.26.89-.65,1.61-1.15,2.19-.51.58-1.13.99-1.87,1.26-.74.28-1.6.41-2.55.41h-3.09v-14.06Z"/>
  <polygon class="cls-1" points="216.13 68.33 223.31 68.33 223.31 69.79 217.72 69.79 217.72 74.24 221.8 74.24 221.8 75.68 217.72 75.68 217.72 80.94 223.63 80.94 223.63 82.39 216.13 82.39 216.13 68.33"/>
  <path class="cls-1" d="M225.77,68.33h1.86l4.41,8.61c.12.24.23.46.33.66.1.2.2.4.3.58.09.19.19.39.29.59.09.2.2.42.32.66h.04v-11.1h1.46v14.06h-1.46l-4.71-9.06c-.14-.25-.26-.48-.36-.69-.11-.2-.21-.4-.31-.6-.1-.2-.2-.41-.31-.63-.11-.21-.23-.46-.36-.74h-.04v11.73h-1.46v-14.06Z"/>
  <path class="cls-1" d="M242,82.64c-.78,0-1.48-.17-2.08-.48-.61-.32-1.12-.8-1.54-1.43-.42-.62-.73-1.39-.95-2.3-.22-.91-.32-1.94-.32-3.11s.11-2.15.34-3.05c.22-.9.56-1.66.98-2.28s.96-1.09,1.58-1.43c.62-.32,1.33-.49,2.12-.49.62,0,1.17.1,1.65.31s.89.5,1.24.88c.35.39.64.85.87,1.4.23.56.42,1.17.57,1.86l-1.45.29c-.24-1.09-.58-1.92-1.04-2.46-.45-.54-1.09-.81-1.88-.81-.52,0-.98.12-1.4.36s-.77.6-1.07,1.09c-.3.48-.52,1.09-.68,1.8-.17.72-.24,1.56-.24,2.5,0,1.99.3,3.47.91,4.45.6.98,1.46,1.48,2.55,1.48.93,0,1.66-.34,2.18-1.05.52-.71.79-1.74.83-3.14h-2.68v-1.36h4.1v6.73h-1.27v-1.92h-.02c-.11.27-.27.53-.46.79-.19.26-.43.49-.7.7-.28.2-.59.37-.95.49-.36.13-.76.19-1.2.19Z"/>
  <rect class="cls-1" x="249.4" y="68.33" width="1.6" height="14.06"/>
  <path class="cls-1" d="M254,68.33h1.86l4.41,8.61c.12.24.23.46.33.66.1.2.2.4.3.58.09.19.19.39.29.59.09.2.2.42.32.66h.04v-11.1h1.46v14.06h-1.46l-4.71-9.06c-.14-.25-.26-.48-.36-.69-.11-.2-.21-.4-.31-.6-.1-.2-.2-.41-.31-.63-.11-.21-.23-.46-.36-.74h-.04v11.73h-1.46v-14.06Z"/>
  <polygon class="cls-1" points="265.92 68.33 273.1 68.33 273.1 69.79 267.51 69.79 267.51 74.24 271.59 74.24 271.59 75.68 267.51 75.68 267.51 80.94 273.42 80.94 273.42 82.39 265.92 82.39 265.92 68.33"/>
  <polygon class="cls-1" points="275.56 68.33 282.74 68.33 282.74 69.79 277.16 69.79 277.16 74.24 281.24 74.24 281.24 75.68 277.16 75.68 277.16 80.94 283.07 80.94 283.07 82.39 275.56 82.39 275.56 68.33"/>
  <path class="cls-1" d="M289.1,75.03c.46,0,.87-.05,1.22-.14.35-.09.65-.24.89-.45.24-.21.42-.49.54-.83.12-.33.19-.76.19-1.26,0-.46-.06-.85-.19-1.18-.12-.32-.3-.59-.53-.8-.24-.2-.54-.34-.89-.44-.35-.09-.77-.14-1.23-.14h-2.31v5.24h2.31ZM285.21,68.33h3.99c.68,0,1.28.08,1.81.24.53.17.97.41,1.35.74.36.33.64.74.83,1.24.19.5.29,1.09.29,1.77,0,.57-.07,1.07-.21,1.49-.15.43-.34.8-.58,1.1-.24.32-.53.57-.84.76-.32.2-.67.34-1.02.44l2.85,6.27h-1.63l-2.76-5.98h-2.49v5.98h-1.58v-14.06Z"/>
  <rect class="cls-1" x="296.15" y="68.33" width="1.6" height="14.06"/>
  <path class="cls-1" d="M300.75,68.33h1.86l4.41,8.61c.12.24.23.46.33.66.1.2.2.4.3.58.09.19.19.39.29.59s.2.42.32.66h.04v-11.1h1.46v14.06h-1.46l-4.71-9.06c-.14-.25-.26-.48-.36-.69-.11-.2-.21-.4-.31-.6-.1-.2-.2-.41-.31-.63-.11-.21-.23-.46-.36-.74h-.04v11.73h-1.46v-14.06Z"/>
  <path class="cls-1" d="M316.98,82.64c-.78,0-1.48-.17-2.08-.48-.61-.32-1.12-.8-1.54-1.43-.42-.62-.73-1.39-.95-2.3-.22-.91-.32-1.94-.32-3.11s.11-2.15.34-3.05c.22-.9.56-1.66.98-2.28.43-.62.96-1.09,1.58-1.43.62-.32,1.33-.49,2.12-.49.62,0,1.17.1,1.65.31.48.2.89.5,1.24.88.35.39.64.85.87,1.4.23.56.42,1.17.57,1.86l-1.45.29c-.24-1.09-.58-1.92-1.04-2.46-.45-.54-1.09-.81-1.88-.81-.52,0-.98.12-1.4.36-.42.24-.77.6-1.07,1.09-.3.48-.52,1.09-.68,1.8-.17.72-.24,1.56-.24,2.5,0,1.99.3,3.47.91,4.45.6.98,1.46,1.48,2.55,1.48.93,0,1.66-.34,2.18-1.05.52-.71.79-1.74.83-3.14h-2.68v-1.36h4.1v6.73h-1.27v-1.92h-.02c-.11.27-.27.53-.46.79-.19.26-.43.49-.7.7-.28.2-.59.37-.95.49-.36.13-.76.19-1.2.19Z"/>
  <rect class="cls-1" x="73" y="92.41" width="1.6" height="14.06"/>
  <path class="cls-1" d="M77.37,96.45h1.54v1.38c.17-.19.36-.37.59-.56.22-.19.47-.36.75-.52.27-.15.56-.28.87-.37.31-.09.62-.15.96-.15.81,0,1.42.24,1.84.71.42.47.63,1.17.63,2.08v7.45h-1.52v-7.12c0-.59-.11-1.04-.32-1.33-.22-.29-.58-.44-1.09-.44-.24,0-.49.05-.73.13-.25.08-.49.19-.72.32-.24.14-.46.3-.67.46-.21.18-.41.35-.58.52v7.45h-1.54v-10.03Z"/>
  <path class="cls-1" d="M90.27,105.35c.22,0,.44-.04.65-.11.21-.07.42-.17.62-.3.2-.12.39-.27.58-.44.18-.17.34-.33.51-.52v-5.04c-.37-.43-.74-.76-1.13-1.01s-.81-.38-1.24-.38c-.34,0-.65.08-.93.23-.28.15-.52.39-.71.71-.2.32-.35.72-.46,1.22-.11.5-.16,1.09-.16,1.77s.06,1.25.17,1.73c.11.48.26.88.46,1.2.2.32.45.56.72.71.28.15.58.22.93.22ZM89.86,106.62c-.49,0-.95-.1-1.36-.3-.42-.19-.78-.5-1.08-.93-.31-.42-.55-.96-.71-1.6-.17-.65-.25-1.43-.25-2.34s.08-1.69.27-2.35c.18-.65.42-1.2.73-1.62.32-.43.68-.74,1.1-.95.43-.2.88-.31,1.37-.31.58,0,1.09.13,1.53.39.45.26.83.6,1.17,1.02v-5.23h1.51v11.6c0,.61.02,1.11.06,1.5.04.39.1.71.19.96h-1.58c-.04-.07-.06-.18-.08-.29-.02-.11-.04-.23-.06-.35-.02-.12-.03-.24-.04-.36,0-.11,0-.21,0-.31-.17.19-.34.38-.53.56-.19.18-.41.33-.63.46-.22.13-.47.24-.74.32-.27.07-.56.12-.87.12Z"/>
  <path class="cls-1" d="M96.65,96.45h1.54v10.03h-1.54v-10.03ZM96.65,92.79h1.56v1.66h-1.56v-1.66Z"/>
  <path class="cls-1" d="M103.11,105.35c.52,0,1.01-.12,1.48-.36s.87-.56,1.22-.95v-3.08c-.78.17-1.43.36-1.95.58-.53.21-.96.45-1.27.69-.32.25-.55.52-.68.8-.14.28-.2.57-.2.86,0,.51.12.88.37,1.11.24.24.58.35,1.03.35ZM102.6,106.6c-.76,0-1.35-.21-1.76-.66-.43-.44-.63-1.05-.63-1.85,0-.5.1-.96.32-1.39.21-.43.55-.83,1-1.18.45-.35,1.04-.68,1.74-.96.71-.28,1.55-.51,2.53-.71v-.6c0-.58-.13-.99-.37-1.26-.25-.27-.63-.41-1.13-.41-.31,0-.59.04-.87.11-.28.07-.54.17-.78.29-.25.12-.48.26-.7.43-.22.17-.43.33-.61.52l-.86-.93c.52-.52,1.11-.95,1.78-1.28.66-.32,1.39-.49,2.19-.49.97,0,1.7.27,2.16.79s.7,1.27.7,2.24v4.75c0,.61,0,1.11.05,1.5.04.39.1.71.19.96h-1.54c-.06-.19-.11-.39-.15-.58-.04-.19-.06-.43-.06-.71-.41.45-.89.8-1.43,1.05-.54.24-1.13.37-1.78.37Z"/>
  <path class="cls-1" d="M109.69,96.45h1.54v1.38c.17-.19.36-.37.59-.56.22-.19.47-.36.75-.52.27-.15.56-.28.87-.37.31-.09.62-.15.96-.15.81,0,1.42.24,1.84.71.42.47.63,1.17.63,2.08v7.45h-1.52v-7.12c0-.59-.11-1.04-.32-1.33-.22-.29-.58-.44-1.09-.44-.24,0-.49.05-.73.13-.25.08-.49.19-.72.32-.24.14-.46.3-.67.46-.21.18-.41.35-.58.52v7.45h-1.54v-10.03Z"/>
  <path class="cls-1" d="M121.6,105.35c.52,0,1.01-.12,1.48-.36s.87-.56,1.22-.95v-3.08c-.78.17-1.43.36-1.95.58-.53.21-.96.45-1.27.69-.32.25-.55.52-.68.8-.14.28-.2.57-.2.86,0,.51.12.88.37,1.11.24.24.58.35,1.03.35ZM121.09,106.6c-.76,0-1.35-.21-1.76-.66-.43-.44-.63-1.05-.63-1.85,0-.5.1-.96.32-1.39.21-.43.55-.83,1-1.18.45-.35,1.04-.68,1.74-.96.71-.28,1.55-.51,2.53-.71v-.6c0-.58-.13-.99-.37-1.26-.25-.27-.63-.41-1.13-.41-.31,0-.59.04-.87.11-.28.07-.54.17-.78.29-.25.12-.48.26-.7.43-.22.17-.43.33-.61.52l-.86-.93c.52-.52,1.11-.95,1.78-1.28.66-.32,1.39-.49,2.19-.49.97,0,1.7.27,2.16.79s.7,1.27.7,2.24v4.75c0,.61,0,1.11.05,1.5.04.39.1.71.19.96h-1.54c-.06-.19-.11-.39-.15-.58-.04-.19-.06-.43-.06-.71-.41.45-.89.8-1.43,1.05-.54.24-1.13.37-1.78.37Z"/>
  <path class="cls-1" d="M132.09,105.35c.33,0,.63-.07.91-.22s.51-.38.71-.7c.19-.32.34-.71.45-1.21s.17-1.09.17-1.77-.06-1.24-.17-1.73c-.11-.48-.27-.89-.47-1.22-.2-.32-.44-.56-.71-.71-.28-.15-.58-.23-.91-.23-.23,0-.45.05-.67.12-.22.08-.43.19-.63.32-.2.13-.39.28-.57.45-.19.17-.34.34-.49.51v5.04c.36.45.73.78,1.12,1.01.39.24.81.35,1.25.35ZM128.18,96.45h1.54v1.27c.15-.19.32-.36.5-.54.19-.18.4-.33.62-.47.22-.14.47-.25.75-.34.27-.08.57-.13.88-.13.48,0,.94.1,1.35.31.42.2.78.52,1.09.95.3.43.54.96.71,1.61.17.66.26,1.44.26,2.34s-.09,1.7-.27,2.35c-.19.65-.43,1.19-.74,1.6-.32.43-.68.73-1.1.94-.43.19-.89.3-1.38.3-.58,0-1.09-.13-1.52-.36-.43-.24-.81-.58-1.14-1v5.02h-1.54v-13.83Z"/>
  <path class="cls-1" d="M141.33,105.39c.39,0,.74-.09,1.05-.28.3-.19.55-.45.75-.79.2-.34.35-.76.45-1.24.1-.48.16-1.03.16-1.62,0-.54-.06-1.04-.15-1.51-.09-.47-.24-.89-.44-1.24-.19-.35-.45-.63-.75-.83-.31-.2-.67-.31-1.08-.31s-.76.09-1.06.28c-.31.19-.56.45-.76.8-.2.34-.36.75-.46,1.23-.1.48-.15,1.01-.15,1.59s.05,1.07.14,1.54c.09.48.23.9.43,1.25.19.35.45.63.75.83.31.2.68.31,1.11.31ZM141.33,106.69c-.56,0-1.08-.11-1.56-.33-.48-.22-.91-.55-1.26-.99-.36-.44-.64-.98-.84-1.63-.2-.65-.31-1.41-.31-2.27s.1-1.61.31-2.26c.2-.65.48-1.2.83-1.64.35-.44.78-.76,1.26-.98.48-.22,1-.33,1.57-.33s1.08.11,1.56.33c.48.22.9.55,1.25.98.35.45.63.99.83,1.64.2.65.31,1.41.31,2.26s-.1,1.62-.31,2.27c-.2.65-.48,1.2-.83,1.63-.35.45-.77.77-1.25.99-.48.22-1,.33-1.56.33Z"/>
  <rect class="cls-1" x="147.33" y="92.41" width="1.54" height="14.06"/>
  <path class="cls-1" d="M151.51,96.45h1.54v10.03h-1.54v-10.03ZM151.51,92.79h1.56v1.66h-1.56v-1.66Z"/>
  <path class="cls-1" d="M158.51,106.69c-.87,0-1.61-.19-2.23-.56-.62-.37-1.12-.87-1.51-1.5l1.05-.76c.33.51.73.9,1.21,1.16.46.27.96.4,1.5.4.64,0,1.13-.13,1.48-.39.34-.26.52-.62.52-1.09,0-.31-.07-.57-.22-.78-.15-.2-.35-.39-.59-.55-.25-.15-.53-.29-.84-.41-.32-.12-.63-.24-.96-.37-.33-.12-.65-.26-.96-.42-.32-.15-.59-.33-.83-.56-.25-.22-.45-.48-.59-.8-.15-.32-.22-.7-.22-1.14,0-.39.07-.76.23-1.09.16-.33.38-.61.66-.85.28-.23.61-.42,1-.55s.82-.2,1.28-.2c.74,0,1.39.17,1.94.49.55.32,1,.76,1.37,1.32l-1.03.8c-.26-.39-.58-.71-.96-.96-.38-.25-.83-.38-1.35-.38-.58,0-.99.13-1.26.39-.28.26-.41.58-.41.96,0,.32.07.58.22.78.15.21.34.4.58.55.24.15.52.28.83.39.31.11.62.23.95.35.32.13.64.26.96.41.31.15.58.34.83.57.24.22.45.49.59.81.15.32.22.71.22,1.16s-.09.83-.27,1.19c-.19.35-.43.64-.74.88-.32.24-.68.43-1.09.56-.43.13-.87.19-1.35.19Z"/>
</svg>