<?xml version="1.0" encoding="UTF-8"?>
<svg id="Layer_2" data-name="Layer 2" xmlns="http://www.w3.org/2000/svg" viewBox="0 0 371.97 90.84">
  <defs>
    <style>
      .cls-1 {
        stroke-width: 4px;
      }

      .cls-1, .cls-2, .cls-3, .cls-4 {
        fill: none;
        stroke: #0c3251;
        stroke-miterlimit: 10;
      }

      .cls-2 {
        stroke-width: .75px;
      }

      .cls-3 {
        stroke-width: 3.5px;
      }

      .cls-4 {
        stroke-width: 5px;
      }
    </style>
  </defs>
  <g id="Layer_1-2" data-name="Layer 1">
    <g>
      <path class="cls-4" d="M114.4,45.24l26.08,33.86c-7.47,5.76-16.65,8.88-26.08,8.88-23.45,0-42.74-19.29-42.74-42.74S90.96,2.5,114.4,2.5c11.38,0,22.29,4.54,30.31,12.61l-30.31,30.13Z"/>
      <path class="cls-4" d="M247.32,2.96c.08,0,.16,0,.24,0,23.32,0,42.51,19.19,42.51,42.51s-19.19,42.51-42.51,42.51l-.24-85.02Z"/>
      <g>
        <line class="cls-2" x1="325.48" y1="20.29" x2="325.48" y2="37.02"/>
        <line class="cls-2" x1="325.48" y1="54.13" x2="325.48" y2="70.86"/>
        <line class="cls-2" x1="343.61" y1="20.29" x2="343.61" y2="37.02"/>
        <line class="cls-2" x1="343.61" y1="54.34" x2="343.61" y2="70.65"/>
        <line class="cls-2" x1="362.01" y1="20.29" x2="362.01" y2="70.65"/>
        <rect class="cls-1" x="329.47" y="-20.21" width="17.33" height="63.68" transform="translate(349.76 -326.5) rotate(90)"/>
        <rect class="cls-1" x="327.39" y="49.55" width="17.33" height="59.53" transform="translate(415.37 -256.74) rotate(90)"/>
        <rect class="cls-1" x="320.07" y="23.24" width="17.33" height="44.88" transform="translate(374.41 -283.05) rotate(90)"/>
        <line class="cls-1" x1="306.29" y1="2.97" x2="306.29" y2="87.98"/>
      </g>
      <path class="cls-3" d="M1.75,50.1h12.35v4.46c3.17-4.8,7.8-5.4,10.72-5.4,1.63,0,4.63.17,7.2,1.71,1.97,1.11,3.6,3,4.63,5.32.94-1.54,2.4-3.34,4.89-4.89,2.66-1.63,5.14-2.14,8.15-2.14,4.63,0,8.4,1.37,10.72,3.6,3.69,3.52,3.94,8.66,3.94,11.4v24.18h-12.35v-19.38c0-1.97,0-5.4-1.63-7.46-1.03-1.29-2.66-2.06-4.46-2.06-2.06,0-3.77.94-4.8,2.32-1.63,2.06-1.89,5.06-1.89,7.54v19.03h-12.35v-19.89c0-2.57-.09-5.57-1.97-7.46-1.29-1.29-2.83-1.54-4.12-1.54-1.63,0-3.09.43-4.29,1.54-2.32,2.23-2.4,6.52-2.4,7.8v19.55H1.75v-38.24Z"/>
      <path class="cls-4" d="M146.63,45.42c0-23.7,19.22-42.92,42.92-42.92s42.92,19.22,42.92,42.92-19.22,42.92-42.92,42.92-42.92-19.22-42.92-42.92ZM189.55,72.25c14.82,0,26.83-12.01,26.83-26.83s-12.01-26.83-26.83-26.83-26.83,12.01-26.83,26.83,12.01,26.83,26.83,26.83ZM189.55,72.25v16.1M208.52,26.45l11.38-11.38M170.62,26.49l-11.42-11.42"/>
    </g>
  </g>
</svg>