<?xml version="1.0" encoding="UTF-8"?>
<svg id="Layer_2" data-name="Layer 2" xmlns="http://www.w3.org/2000/svg" viewBox="0 0 282.03 83.89">
  <defs>
    <style>
      .cls-1 {
        stroke-width: 3px;
      }

      .cls-1, .cls-2, .cls-3, .cls-4 {
        fill: none;
        stroke: #fff;
        stroke-miterlimit: 10;
      }

      .cls-2 {
        font-family: FuturaPT-Heavy, 'Futura PT';
        font-size: 64.81px;
        font-weight: 800;
      }

      .cls-2, .cls-3 {
        stroke-width: 2px;
      }

      .cls-4 {
        stroke-width: .75px;
      }
    </style>
  </defs>
  <g id="Layer_1-2" data-name="Layer 1">
    <g>
      <path class="cls-3" d="M89.79,33.46l19.71,25.59c-5.65,4.35-12.58,6.71-19.71,6.71-17.72,0-32.31-14.58-32.31-32.31S72.07,1.15,89.79,1.15c8.6,0,16.85,3.43,22.92,9.53l-22.92,22.77Z"/>
      <path class="cls-1" d="M190.27,1.5c.06,0,.12,0,.18,0,17.63,0,32.14,14.51,32.14,32.14s-14.51,32.14-32.14,32.14l-.18-64.27Z"/>
      <g>
        <line class="cls-4" x1="248.76" y1="16.67" x2="248.76" y2="28.8"/>
        <line class="cls-4" x1="248.76" y1="41.06" x2="248.76" y2="53.2"/>
        <line class="cls-4" x1="261.92" y1="16.67" x2="261.92" y2="28.8"/>
        <line class="cls-4" x1="261.92" y1="41.37" x2="261.92" y2="53.5"/>
        <line class="cls-4" x1="275.26" y1="16.67" x2="275.26" y2="53.2"/>
        <rect class="cls-3" x="251.66" y="-12.71" width="12.57" height="46.19" transform="translate(268.32 -247.56) rotate(90)"/>
        <rect class="cls-3" x="250.15" y="37.89" width="12.57" height="43.18" transform="translate(315.92 -196.95) rotate(90)"/>
        <rect class="cls-3" x="244.84" y="18.81" width="12.57" height="32.55" transform="translate(286.2 -216.04) rotate(90)"/>
        <line class="cls-3" x1="234.85" y1="4.1" x2="234.85" y2="65.76"/>
      </g>
      <text class="cls-2" transform="translate(1 66.04)"><tspan x="0" y="0">m</tspan></text>
      <path class="cls-3" d="M114.15,33.6c0-17.92,14.53-32.45,32.45-32.45s32.45,14.53,32.45,32.45-14.53,32.45-32.45,32.45-32.45-14.53-32.45-32.45ZM146.6,53.87c11.2,0,20.28-9.08,20.28-20.28s-9.08-20.28-20.28-20.28-20.28,9.08-20.28,20.28,9.08,20.28,20.28,20.28ZM146.6,53.87v12.17M160.93,19.26l8.6-8.6M132.29,19.29l-8.63-8.63"/>
    </g>
  </g>
</svg>